<svg xmlns="http://www.w3.org/2000/svg" xmlns:xlink="http://www.w3.org/1999/xlink" preserveAspectRatio="xMidYMid meet" viewBox="15.97 42.35 891.15 147.83"><defs><g></g></defs><g fill="#000000" fill-opacity="1"><g transform="translate(0.482143, 173.676872)"><g><path d="M 15.515625 -129.234375 L 46.15625 -129.234375 L 80.125 -74.59375 L 114.09375 -129.234375 L 144.75 -129.234375 L 144.75 0 L 116.5 0 L 116.5 -84.375 L 80.125 -29.171875 L 79.390625 -29.171875 L 43.390625 -83.8125 L 43.390625 0 L 15.515625 0 Z M 15.515625 -129.234375 "></path></g></g></g><g fill="#000000" fill-opacity="1"><g transform="translate(160.728702, 173.676872)"><g><path d="M 59.8125 -130.15625 L 86.03125 -130.15625 L 141.421875 0 L 111.703125 0 L 99.875 -28.984375 L 45.234375 -28.984375 L 33.421875 0 L 4.4375 0 Z M 89.734375 -54.09375 L 72.5625 -96 L 55.390625 -54.09375 Z M 89.734375 -54.09375 "></path></g></g></g><g fill="#000000" fill-opacity="1"><g transform="translate(306.575236, 173.676872)"><g><path d="M 15.515625 -129.234375 L 46.15625 -129.234375 L 80.125 -74.59375 L 114.09375 -129.234375 L 144.75 -129.234375 L 144.75 0 L 116.5 0 L 116.5 -84.375 L 80.125 -29.171875 L 79.390625 -29.171875 L 43.390625 -83.8125 L 43.390625 0 L 15.515625 0 Z M 15.515625 -129.234375 "></path></g></g></g><g fill="#000000" fill-opacity="1"><g transform="translate(466.888499, 128.897774)"><g><path d="M 13.296875 -81.625 L 21.921875 -81.625 L 21.921875 -7.46875 L 67.640625 -7.46875 L 67.640625 0 L 13.296875 0 Z M 13.296875 -81.625 "></path></g></g></g><g fill="#000000" fill-opacity="1"><g transform="translate(534.63907, 128.897774)"><g><path d="M 36.609375 0.578125 C 30.703125 0.578125 25.378906 -0.757812 20.640625 -3.4375 C 15.898438 -6.125 12.164062 -9.835938 9.4375 -14.578125 C 6.71875 -19.316406 5.359375 -24.679688 5.359375 -30.671875 C 5.359375 -36.648438 6.71875 -42.007812 9.4375 -46.75 C 12.164062 -51.5 15.898438 -55.191406 20.640625 -57.828125 C 25.378906 -60.472656 30.703125 -61.796875 36.609375 -61.796875 C 42.523438 -61.796875 47.851562 -60.472656 52.59375 -57.828125 C 57.332031 -55.191406 61.039062 -51.5 63.71875 -46.75 C 66.40625 -42.007812 67.75 -36.648438 67.75 -30.671875 C 67.75 -24.679688 66.40625 -19.316406 63.71875 -14.578125 C 61.039062 -9.835938 57.332031 -6.125 52.59375 -3.4375 C 47.851562 -0.757812 42.523438 0.578125 36.609375 0.578125 Z M 36.609375 -6.765625 C 40.960938 -6.765625 44.867188 -7.753906 48.328125 -9.734375 C 51.796875 -11.710938 54.5 -14.53125 56.4375 -18.1875 C 58.382812 -21.84375 59.359375 -26.003906 59.359375 -30.671875 C 59.359375 -35.335938 58.382812 -39.492188 56.4375 -43.140625 C 54.5 -46.796875 51.796875 -49.613281 48.328125 -51.59375 C 44.867188 -53.582031 40.960938 -54.578125 36.609375 -54.578125 C 32.253906 -54.578125 28.347656 -53.582031 24.890625 -51.59375 C 21.429688 -49.613281 18.710938 -46.796875 16.734375 -43.140625 C 14.753906 -39.492188 13.765625 -35.335938 13.765625 -30.671875 C 13.765625 -26.003906 14.753906 -21.84375 16.734375 -18.1875 C 18.710938 -14.53125 21.429688 -11.710938 24.890625 -9.734375 C 28.347656 -7.753906 32.253906 -6.765625 36.609375 -6.765625 Z M 36.609375 -6.765625 "></path></g></g></g><g fill="#000000" fill-opacity="1"><g transform="translate(607.753709, 128.897774)"><g><path d="M 42.796875 -61.796875 C 50.492188 -61.796875 56.613281 -59.5625 61.15625 -55.09375 C 65.707031 -50.625 67.984375 -44.113281 67.984375 -35.5625 L 67.984375 0 L 59.703125 0 L 59.703125 -34.75 C 59.703125 -41.125 58.109375 -45.984375 54.921875 -49.328125 C 51.734375 -52.671875 47.1875 -54.34375 41.28125 -54.34375 C 34.675781 -54.34375 29.445312 -52.378906 25.59375 -48.453125 C 21.75 -44.523438 19.828125 -39.101562 19.828125 -32.1875 L 19.828125 0 L 11.546875 0 L 11.546875 -61.34375 L 19.46875 -61.34375 L 19.46875 -50.03125 C 21.726562 -53.757812 24.859375 -56.648438 28.859375 -58.703125 C 32.859375 -60.765625 37.503906 -61.796875 42.796875 -61.796875 Z M 42.796875 -61.796875 "></path></g></g></g><g fill="#000000" fill-opacity="1"><g transform="translate(686.932092, 128.897774)"><g><path d="M 67.515625 -86.53125 L 67.515625 0 L 59.59375 0 L 59.59375 -12.125 C 57.101562 -8.007812 53.816406 -4.863281 49.734375 -2.6875 C 45.648438 -0.507812 41.046875 0.578125 35.921875 0.578125 C 30.160156 0.578125 24.945312 -0.738281 20.28125 -3.375 C 15.625 -6.019531 11.972656 -9.710938 9.328125 -14.453125 C 6.679688 -19.203125 5.359375 -24.609375 5.359375 -30.671875 C 5.359375 -36.734375 6.679688 -42.132812 9.328125 -46.875 C 11.972656 -51.613281 15.625 -55.285156 20.28125 -57.890625 C 24.945312 -60.492188 30.160156 -61.796875 35.921875 -61.796875 C 40.890625 -61.796875 45.375 -60.765625 49.375 -58.703125 C 53.382812 -56.648438 56.671875 -53.640625 59.234375 -49.671875 L 59.234375 -86.53125 Z M 36.609375 -6.765625 C 40.890625 -6.765625 44.757812 -7.753906 48.21875 -9.734375 C 51.675781 -11.710938 54.394531 -14.53125 56.375 -18.1875 C 58.363281 -21.84375 59.359375 -26.003906 59.359375 -30.671875 C 59.359375 -35.335938 58.363281 -39.492188 56.375 -43.140625 C 54.394531 -46.796875 51.675781 -49.613281 48.21875 -51.59375 C 44.757812 -53.582031 40.890625 -54.578125 36.609375 -54.578125 C 32.253906 -54.578125 28.347656 -53.582031 24.890625 -51.59375 C 21.429688 -49.613281 18.710938 -46.796875 16.734375 -43.140625 C 14.753906 -39.492188 13.765625 -35.335938 13.765625 -30.671875 C 13.765625 -26.003906 14.753906 -21.84375 16.734375 -18.1875 C 18.710938 -14.53125 21.429688 -11.710938 24.890625 -9.734375 C 28.347656 -7.753906 32.253906 -6.765625 36.609375 -6.765625 Z M 36.609375 -6.765625 "></path></g></g></g><g fill="#000000" fill-opacity="1"><g transform="translate(765.993881, 128.897774)"><g><path d="M 36.609375 0.578125 C 30.703125 0.578125 25.378906 -0.757812 20.640625 -3.4375 C 15.898438 -6.125 12.164062 -9.835938 9.4375 -14.578125 C 6.71875 -19.316406 5.359375 -24.679688 5.359375 -30.671875 C 5.359375 -36.648438 6.71875 -42.007812 9.4375 -46.75 C 12.164062 -51.5 15.898438 -55.191406 20.640625 -57.828125 C 25.378906 -60.472656 30.703125 -61.796875 36.609375 -61.796875 C 42.523438 -61.796875 47.851562 -60.472656 52.59375 -57.828125 C 57.332031 -55.191406 61.039062 -51.5 63.71875 -46.75 C 66.40625 -42.007812 67.75 -36.648438 67.75 -30.671875 C 67.75 -24.679688 66.40625 -19.316406 63.71875 -14.578125 C 61.039062 -9.835938 57.332031 -6.125 52.59375 -3.4375 C 47.851562 -0.757812 42.523438 0.578125 36.609375 0.578125 Z M 36.609375 -6.765625 C 40.960938 -6.765625 44.867188 -7.753906 48.328125 -9.734375 C 51.796875 -11.710938 54.5 -14.53125 56.4375 -18.1875 C 58.382812 -21.84375 59.359375 -26.003906 59.359375 -30.671875 C 59.359375 -35.335938 58.382812 -39.492188 56.4375 -43.140625 C 54.5 -46.796875 51.796875 -49.613281 48.328125 -51.59375 C 44.867188 -53.582031 40.960938 -54.578125 36.609375 -54.578125 C 32.253906 -54.578125 28.347656 -53.582031 24.890625 -51.59375 C 21.429688 -49.613281 18.710938 -46.796875 16.734375 -43.140625 C 14.753906 -39.492188 13.765625 -35.335938 13.765625 -30.671875 C 13.765625 -26.003906 14.753906 -21.84375 16.734375 -18.1875 C 18.710938 -14.53125 21.429688 -11.710938 24.890625 -9.734375 C 28.347656 -7.753906 32.253906 -6.765625 36.609375 -6.765625 Z M 36.609375 -6.765625 "></path></g></g></g><g fill="#000000" fill-opacity="1"><g transform="translate(839.108519, 128.897774)"><g><path d="M 42.796875 -61.796875 C 50.492188 -61.796875 56.613281 -59.5625 61.15625 -55.09375 C 65.707031 -50.625 67.984375 -44.113281 67.984375 -35.5625 L 67.984375 0 L 59.703125 0 L 59.703125 -34.75 C 59.703125 -41.125 58.109375 -45.984375 54.921875 -49.328125 C 51.734375 -52.671875 47.1875 -54.34375 41.28125 -54.34375 C 34.675781 -54.34375 29.445312 -52.378906 25.59375 -48.453125 C 21.75 -44.523438 19.828125 -39.101562 19.828125 -32.1875 L 19.828125 0 L 11.546875 0 L 11.546875 -61.34375 L 19.46875 -61.34375 L 19.46875 -50.03125 C 21.726562 -53.757812 24.859375 -56.648438 28.859375 -58.703125 C 32.859375 -60.765625 37.503906 -61.796875 42.796875 -61.796875 Z M 42.796875 -61.796875 "></path></g></g></g><g fill="#000000" fill-opacity="1"><g transform="translate(474.197884, 178.37937)"><g><path d="M 6.765625 -41.5 L 23.65625 -41.5 C 28.039062 -41.5 31.910156 -40.617188 35.265625 -38.859375 C 38.628906 -37.097656 41.238281 -34.644531 43.09375 -31.5 C 44.957031 -28.363281 45.890625 -24.78125 45.890625 -20.75 C 45.890625 -16.71875 44.957031 -13.128906 43.09375 -9.984375 C 41.238281 -6.847656 38.628906 -4.398438 35.265625 -2.640625 C 31.910156 -0.878906 28.039062 0 23.65625 0 L 6.765625 0 Z M 23.421875 -3.796875 C 27.054688 -3.796875 30.234375 -4.515625 32.953125 -5.953125 C 35.679688 -7.398438 37.796875 -9.394531 39.296875 -11.9375 C 40.804688 -14.488281 41.5625 -17.425781 41.5625 -20.75 C 41.5625 -24.070312 40.804688 -27.003906 39.296875 -29.546875 C 37.796875 -32.097656 35.679688 -34.09375 32.953125 -35.53125 C 30.234375 -36.976562 27.054688 -37.703125 23.421875 -37.703125 L 11.140625 -37.703125 L 11.140625 -3.796875 Z M 23.421875 -3.796875 "></path></g></g></g><g fill="#000000" fill-opacity="1"><g transform="translate(523.146576, 178.37937)"><g><path d="M 33.015625 -14.28125 L 6.9375 -14.28125 C 7.175781 -11.039062 8.421875 -8.421875 10.671875 -6.421875 C 12.921875 -4.429688 15.765625 -3.4375 19.203125 -3.4375 C 21.140625 -3.4375 22.914062 -3.78125 24.53125 -4.46875 C 26.15625 -5.164062 27.5625 -6.1875 28.75 -7.53125 L 31.125 -4.796875 C 29.738281 -3.140625 28.007812 -1.875 25.9375 -1 C 23.863281 -0.132812 21.582031 0.296875 19.09375 0.296875 C 15.882812 0.296875 13.046875 -0.382812 10.578125 -1.75 C 8.109375 -3.113281 6.179688 -5 4.796875 -7.40625 C 3.421875 -9.820312 2.734375 -12.550781 2.734375 -15.59375 C 2.734375 -18.632812 3.394531 -21.359375 4.71875 -23.765625 C 6.039062 -26.179688 7.859375 -28.0625 10.171875 -29.40625 C 12.484375 -30.75 15.082031 -31.421875 17.96875 -31.421875 C 20.851562 -31.421875 23.441406 -30.75 25.734375 -29.40625 C 28.023438 -28.0625 29.820312 -26.191406 31.125 -23.796875 C 32.425781 -21.410156 33.078125 -18.675781 33.078125 -15.59375 Z M 17.96875 -27.796875 C 14.957031 -27.796875 12.429688 -26.835938 10.390625 -24.921875 C 8.359375 -23.003906 7.207031 -20.503906 6.9375 -17.421875 L 29.046875 -17.421875 C 28.773438 -20.503906 27.617188 -23.003906 25.578125 -24.921875 C 23.546875 -26.835938 21.007812 -27.796875 17.96875 -27.796875 Z M 17.96875 -27.796875 "></path></g></g></g><g fill="#000000" fill-opacity="1"><g transform="translate(558.939561, 178.37937)"><g><path d="M 14.234375 0.296875 C 11.703125 0.296875 9.28125 -0.0664062 6.96875 -0.796875 C 4.65625 -1.523438 2.847656 -2.445312 1.546875 -3.5625 L 3.4375 -6.875 C 4.738281 -5.84375 6.378906 -5 8.359375 -4.34375 C 10.335938 -3.695312 12.394531 -3.375 14.53125 -3.375 C 17.375 -3.375 19.472656 -3.816406 20.828125 -4.703125 C 22.191406 -5.597656 22.875 -6.859375 22.875 -8.484375 C 22.875 -9.628906 22.5 -10.523438 21.75 -11.171875 C 21 -11.828125 20.050781 -12.320312 18.90625 -12.65625 C 17.757812 -12.988281 16.238281 -13.316406 14.34375 -13.640625 C 11.8125 -14.109375 9.773438 -14.585938 8.234375 -15.078125 C 6.691406 -15.578125 5.378906 -16.421875 4.296875 -17.609375 C 3.210938 -18.796875 2.671875 -20.4375 2.671875 -22.53125 C 2.671875 -25.132812 3.753906 -27.265625 5.921875 -28.921875 C 8.097656 -30.585938 11.125 -31.421875 15 -31.421875 C 17.007812 -31.421875 19.019531 -31.148438 21.03125 -30.609375 C 23.050781 -30.078125 24.71875 -29.378906 26.03125 -28.515625 L 24.1875 -25.140625 C 21.613281 -26.910156 18.550781 -27.796875 15 -27.796875 C 12.3125 -27.796875 10.285156 -27.320312 8.921875 -26.375 C 7.554688 -25.425781 6.875 -24.179688 6.875 -22.640625 C 6.875 -21.453125 7.257812 -20.503906 8.03125 -19.796875 C 8.800781 -19.085938 9.757812 -18.5625 10.90625 -18.21875 C 12.050781 -17.882812 13.632812 -17.539062 15.65625 -17.1875 C 18.144531 -16.71875 20.140625 -16.242188 21.640625 -15.765625 C 23.140625 -15.296875 24.421875 -14.488281 25.484375 -13.34375 C 26.554688 -12.195312 27.09375 -10.613281 27.09375 -8.59375 C 27.09375 -5.863281 25.957031 -3.695312 23.6875 -2.09375 C 21.414062 -0.5 18.265625 0.296875 14.234375 0.296875 Z M 14.234375 0.296875 "></path></g></g></g><g fill="#000000" fill-opacity="1"><g transform="translate(587.91766, 178.37937)"><g><path d="M 5.875 -31.1875 L 10.078125 -31.1875 L 10.078125 0 L 5.875 0 Z M 8 -38 C 7.125 -38 6.390625 -38.296875 5.796875 -38.890625 C 5.210938 -39.484375 4.921875 -40.191406 4.921875 -41.015625 C 4.921875 -41.804688 5.210938 -42.5 5.796875 -43.09375 C 6.390625 -43.6875 7.125 -43.984375 8 -43.984375 C 8.863281 -43.984375 9.59375 -43.695312 10.1875 -43.125 C 10.78125 -42.550781 11.078125 -41.867188 11.078125 -41.078125 C 11.078125 -40.210938 10.78125 -39.484375 10.1875 -38.890625 C 9.59375 -38.296875 8.863281 -38 8 -38 Z M 8 -38 "></path></g></g></g><g fill="#000000" fill-opacity="1"><g transform="translate(603.858586, 178.37937)"><g><path d="M 34.734375 -31.1875 L 34.734375 -3.796875 C 34.734375 1.503906 33.4375 5.425781 30.84375 7.96875 C 28.257812 10.519531 24.359375 11.796875 19.140625 11.796875 C 16.265625 11.796875 13.53125 11.367188 10.9375 10.515625 C 8.34375 9.671875 6.238281 8.5 4.625 7 L 6.765625 3.796875 C 8.265625 5.140625 10.085938 6.1875 12.234375 6.9375 C 14.390625 7.6875 16.65625 8.0625 19.03125 8.0625 C 22.976562 8.0625 25.878906 7.140625 27.734375 5.296875 C 29.597656 3.460938 30.53125 0.609375 30.53125 -3.265625 L 30.53125 -7.234375 C 29.226562 -5.253906 27.519531 -3.75 25.40625 -2.71875 C 23.289062 -1.695312 20.945312 -1.1875 18.375 -1.1875 C 15.445312 -1.1875 12.785156 -1.828125 10.390625 -3.109375 C 8.003906 -4.390625 6.128906 -6.1875 4.765625 -8.5 C 3.410156 -10.8125 2.734375 -13.429688 2.734375 -16.359375 C 2.734375 -19.285156 3.410156 -21.894531 4.765625 -24.1875 C 6.128906 -26.476562 8 -28.253906 10.375 -29.515625 C 12.75 -30.785156 15.414062 -31.421875 18.375 -31.421875 C 21.019531 -31.421875 23.410156 -30.882812 25.546875 -29.8125 C 27.679688 -28.75 29.398438 -27.207031 30.703125 -25.1875 L 30.703125 -31.1875 Z M 18.796875 -4.921875 C 21.046875 -4.921875 23.078125 -5.40625 24.890625 -6.375 C 26.710938 -7.34375 28.128906 -8.695312 29.140625 -10.4375 C 30.148438 -12.175781 30.65625 -14.148438 30.65625 -16.359375 C 30.65625 -18.578125 30.148438 -20.546875 29.140625 -22.265625 C 28.128906 -23.984375 26.722656 -25.328125 24.921875 -26.296875 C 23.128906 -27.265625 21.085938 -27.75 18.796875 -27.75 C 16.535156 -27.75 14.503906 -27.269531 12.703125 -26.3125 C 10.910156 -25.363281 9.507812 -24.019531 8.5 -22.28125 C 7.5 -20.550781 7 -18.578125 7 -16.359375 C 7 -14.148438 7.5 -12.175781 8.5 -10.4375 C 9.507812 -8.695312 10.910156 -7.34375 12.703125 -6.375 C 14.503906 -5.40625 16.535156 -4.921875 18.796875 -4.921875 Z M 18.796875 -4.921875 "></path></g></g></g><g fill="#000000" fill-opacity="1"><g transform="translate(644.510909, 178.37937)"><g><path d="M 21.75 -31.421875 C 25.664062 -31.421875 28.78125 -30.285156 31.09375 -28.015625 C 33.40625 -25.742188 34.5625 -22.429688 34.5625 -18.078125 L 34.5625 0 L 30.359375 0 L 30.359375 -17.671875 C 30.359375 -20.910156 29.546875 -23.378906 27.921875 -25.078125 C 26.296875 -26.773438 23.984375 -27.625 20.984375 -27.625 C 17.628906 -27.625 14.972656 -26.625 13.015625 -24.625 C 11.054688 -22.632812 10.078125 -19.878906 10.078125 -16.359375 L 10.078125 0 L 5.875 0 L 5.875 -31.1875 L 9.90625 -31.1875 L 9.90625 -25.4375 C 11.050781 -27.332031 12.640625 -28.800781 14.671875 -29.84375 C 16.703125 -30.894531 19.0625 -31.421875 21.75 -31.421875 Z M 21.75 -31.421875 "></path></g></g></g><g fill="#000000" fill-opacity="1"><g transform="translate(684.629881, 178.37937)"><g></g></g></g><g fill="#000000" fill-opacity="1"><g transform="translate(700.15599, 178.37937)"><g><path d="M 36.453125 0.65625 L 30.703125 -5.28125 C 27.191406 -1.519531 22.566406 0.359375 16.828125 0.359375 C 14.148438 0.359375 11.753906 -0.0820312 9.640625 -0.96875 C 7.523438 -1.863281 5.875 -3.109375 4.6875 -4.703125 C 3.5 -6.304688 2.90625 -8.140625 2.90625 -10.203125 C 2.90625 -12.691406 3.691406 -14.921875 5.265625 -16.890625 C 6.847656 -18.867188 9.539062 -20.945312 13.34375 -23.125 C 11.363281 -25.175781 10 -26.921875 9.25 -28.359375 C 8.5 -29.804688 8.125 -31.335938 8.125 -32.953125 C 8.125 -35.609375 9.070312 -37.742188 10.96875 -39.359375 C 12.863281 -40.984375 15.410156 -41.796875 18.609375 -41.796875 C 21.578125 -41.796875 23.929688 -41.0625 25.671875 -39.59375 C 27.410156 -38.132812 28.28125 -36.117188 28.28125 -33.546875 C 28.28125 -31.492188 27.585938 -29.644531 26.203125 -28 C 24.816406 -26.363281 22.425781 -24.5625 19.03125 -22.59375 L 30.40625 -10.84375 C 31.675781 -13.101562 32.609375 -15.769531 33.203125 -18.84375 L 36.640625 -17.78125 C 35.890625 -14.070312 34.660156 -10.890625 32.953125 -8.234375 L 38.890625 -2.140625 Z M 18.609375 -38.65625 C 16.554688 -38.65625 14.945312 -38.140625 13.78125 -37.109375 C 12.613281 -36.078125 12.03125 -34.710938 12.03125 -33.015625 C 12.03125 -31.796875 12.347656 -30.628906 12.984375 -29.515625 C 13.617188 -28.410156 14.863281 -26.910156 16.71875 -25.015625 C 19.71875 -26.753906 21.789062 -28.234375 22.9375 -29.453125 C 24.082031 -30.679688 24.65625 -32.03125 24.65625 -33.5 C 24.65625 -35.070312 24.117188 -36.320312 23.046875 -37.25 C 21.984375 -38.1875 20.503906 -38.65625 18.609375 -38.65625 Z M 17.078125 -3.140625 C 21.660156 -3.140625 25.375 -4.703125 28.21875 -7.828125 L 15.703125 -20.6875 C 12.429688 -18.832031 10.171875 -17.148438 8.921875 -15.640625 C 7.671875 -14.140625 7.046875 -12.460938 7.046875 -10.609375 C 7.046875 -8.359375 7.960938 -6.550781 9.796875 -5.1875 C 11.640625 -3.820312 14.066406 -3.140625 17.078125 -3.140625 Z M 17.078125 -3.140625 "></path></g></g></g><g fill="#000000" fill-opacity="1"><g transform="translate(739.800896, 178.37937)"><g></g></g></g><g fill="#000000" fill-opacity="1"><g transform="translate(755.327006, 178.37937)"><g><path d="M 32.90625 -21.40625 C 35.625 -20.8125 37.722656 -19.632812 39.203125 -17.875 C 40.691406 -16.113281 41.4375 -13.847656 41.4375 -11.078125 C 41.4375 -7.523438 40.117188 -4.789062 37.484375 -2.875 C 34.859375 -0.957031 30.976562 0 25.84375 0 L 6.765625 0 L 6.765625 -41.5 L 24.65625 -41.5 C 29.28125 -41.5 32.867188 -40.566406 35.421875 -38.703125 C 37.972656 -36.847656 39.25 -34.222656 39.25 -30.828125 C 39.25 -28.535156 38.679688 -26.585938 37.546875 -24.984375 C 36.421875 -23.390625 34.875 -22.195312 32.90625 -21.40625 Z M 11.140625 -37.875 L 11.140625 -22.828125 L 24.359375 -22.828125 C 27.722656 -22.828125 30.3125 -23.46875 32.125 -24.75 C 33.945312 -26.03125 34.859375 -27.898438 34.859375 -30.359375 C 34.859375 -32.804688 33.945312 -34.671875 32.125 -35.953125 C 30.3125 -37.234375 27.722656 -37.875 24.359375 -37.875 Z M 25.78125 -3.609375 C 29.5 -3.609375 32.304688 -4.238281 34.203125 -5.5 C 36.097656 -6.769531 37.046875 -8.75 37.046875 -11.4375 C 37.046875 -16.613281 33.289062 -19.203125 25.78125 -19.203125 L 11.140625 -19.203125 L 11.140625 -3.609375 Z M 25.78125 -3.609375 "></path></g></g></g><g fill="#000000" fill-opacity="1"><g transform="translate(800.008997, 178.37937)"><g><path d="M 33.96875 -31.1875 L 33.96875 0 L 29.9375 0 L 29.9375 -5.6875 C 28.832031 -3.789062 27.3125 -2.316406 25.375 -1.265625 C 23.4375 -0.222656 21.222656 0.296875 18.734375 0.296875 C 14.660156 0.296875 11.445312 -0.835938 9.09375 -3.109375 C 6.75 -5.378906 5.578125 -8.707031 5.578125 -13.09375 L 5.578125 -31.1875 L 9.78125 -31.1875 L 9.78125 -13.515625 C 9.78125 -10.234375 10.585938 -7.742188 12.203125 -6.046875 C 13.828125 -4.347656 16.140625 -3.5 19.140625 -3.5 C 22.421875 -3.5 25.007812 -4.492188 26.90625 -6.484375 C 28.8125 -8.484375 29.765625 -11.265625 29.765625 -14.828125 L 29.765625 -31.1875 Z M 33.96875 -31.1875 "></path></g></g></g><g fill="#000000" fill-opacity="1"><g transform="translate(839.890936, 178.37937)"><g><path d="M 5.875 -31.1875 L 10.078125 -31.1875 L 10.078125 0 L 5.875 0 Z M 8 -38 C 7.125 -38 6.390625 -38.296875 5.796875 -38.890625 C 5.210938 -39.484375 4.921875 -40.191406 4.921875 -41.015625 C 4.921875 -41.804688 5.210938 -42.5 5.796875 -43.09375 C 6.390625 -43.6875 7.125 -43.984375 8 -43.984375 C 8.863281 -43.984375 9.59375 -43.695312 10.1875 -43.125 C 10.78125 -42.550781 11.078125 -41.867188 11.078125 -41.078125 C 11.078125 -40.210938 10.78125 -39.484375 10.1875 -38.890625 C 9.59375 -38.296875 8.863281 -38 8 -38 Z M 8 -38 "></path></g></g></g><g fill="#000000" fill-opacity="1"><g transform="translate(855.831862, 178.37937)"><g><path d="M 5.875 -43.984375 L 10.078125 -43.984375 L 10.078125 0 L 5.875 0 Z M 5.875 -43.984375 "></path></g></g></g><g fill="#000000" fill-opacity="1"><g transform="translate(871.772788, 178.37937)"><g><path d="M 34.328125 -43.984375 L 34.328125 0 L 30.296875 0 L 30.296875 -6.171875 C 29.023438 -4.066406 27.351562 -2.460938 25.28125 -1.359375 C 23.207031 -0.253906 20.867188 0.296875 18.265625 0.296875 C 15.335938 0.296875 12.6875 -0.375 10.3125 -1.71875 C 7.945312 -3.0625 6.09375 -4.9375 4.75 -7.34375 C 3.40625 -9.757812 2.734375 -12.507812 2.734375 -15.59375 C 2.734375 -18.675781 3.40625 -21.421875 4.75 -23.828125 C 6.09375 -26.242188 7.945312 -28.113281 10.3125 -29.4375 C 12.6875 -30.757812 15.335938 -31.421875 18.265625 -31.421875 C 20.785156 -31.421875 23.0625 -30.894531 25.09375 -29.84375 C 27.132812 -28.800781 28.804688 -27.269531 30.109375 -25.25 L 30.109375 -43.984375 Z M 18.609375 -3.4375 C 20.785156 -3.4375 22.753906 -3.941406 24.515625 -4.953125 C 26.273438 -5.960938 27.65625 -7.394531 28.65625 -9.25 C 29.664062 -11.101562 30.171875 -13.21875 30.171875 -15.59375 C 30.171875 -17.957031 29.664062 -20.066406 28.65625 -21.921875 C 27.65625 -23.785156 26.273438 -25.222656 24.515625 -26.234375 C 22.753906 -27.242188 20.785156 -27.75 18.609375 -27.75 C 16.398438 -27.75 14.414062 -27.242188 12.65625 -26.234375 C 10.894531 -25.222656 9.507812 -23.785156 8.5 -21.921875 C 7.5 -20.066406 7 -17.957031 7 -15.59375 C 7 -13.21875 7.5 -11.101562 8.5 -9.25 C 9.507812 -7.394531 10.894531 -5.960938 12.65625 -4.953125 C 14.414062 -3.941406 16.398438 -3.4375 18.609375 -3.4375 Z M 18.609375 -3.4375 "></path></g></g></g></svg>