<svg xmlns="http://www.w3.org/2000/svg" viewBox="0 0 1000 1000" fill="none" stroke-linecap="round" stroke-linejoin="round"><path d="M953 500Q983 524 958 545Q980 571 939 587Q969 618 935 632Q946 659 912 671Q928 702 904 716Q899 739 883 756Q885 786 853 790Q844 812 827 827Q812 844 786 849Q779 876 755 882Q740 901 715 903Q702 927 675 922Q656 937 632 935Q613 949 590 953Q569 962 545 962Q523 965 500 954Q477 972 455 956Q432 959 413 938Q382 971 367 939Q339 951 325 923Q300 922 281 910Q259 903 244 884Q219 879 214 848Q183 850 180 820Q155 813 146 791Q110 789 130 747Q81 751 99 714Q71 703 86 672Q52 660 72 630Q49 613 62 587Q39 568 42 545Q29 523 52 500Q31 477 52 456Q21 429 56 412Q47 386 57 366Q63 344 87 329Q59 291 100 286Q91 255 121 247Q125 222 142 206Q146 180 174 174Q189 156 207 143Q216 117 250 125Q249 81 286 100Q292 61 327 82Q338 47 366 57Q386 44 409 45Q431 33 456 54Q477 33 500 51Q524 18 544 53Q570 28 588 59Q617 31 632 65Q659 56 675 78Q700 76 712 103Q749 85 747 130Q791 108 788 150Q826 141 820 180Q859 175 853 211Q889 212 886 242Q914 252 905 284Q924 300 921 326Q949 339 938 367Q958 385 950 411Q959 432 944 456Q963 477 963 500" stroke="#a3a3a3" stroke-width="3"/><path d="M956 500Q976 526 953 549Q975 578 956 600Q956 627 950 652Q959 683 918 693Q923 724 906 744Q899 770 879 788Q870 814 845 826Q839 858 797 849Q791 883 755 876Q755 923 713 901Q703 938 668 921Q654 959 621 937Q604 972 575 959Q551 968 526 973Q500 981 474 971Q449 972 425 955Q399 959 375 949Q343 965 326 937Q301 931 289 898Q251 913 238 886Q204 889 193 861Q167 852 159 823Q135 810 127 784Q100 771 105 738Q72 727 89 690Q44 682 55 650Q44 626 53 598Q22 578 32 551Q24 526 25 500Q24 474 44 450Q16 421 51 401Q34 371 50 348Q50 321 75 303Q67 271 112 267Q91 223 141 227Q133 188 172 189Q166 147 194 139Q208 115 236 111Q251 86 288 101Q295 57 326 62Q346 43 373 42Q396 27 425 40Q448 20 475 43Q500 6 525 37Q553 15 573 54Q606 19 620 68Q658 31 676 59Q700 67 718 88Q750 85 760 117Q799 106 807 139Q838 143 834 184Q861 193 876 214Q892 234 904 257Q925 274 912 309Q938 325 931 355Q959 373 946 402Q966 424 952 451Q987 474 964 500" stroke="#a8c686" stroke-width="4"/><path d="M949 500Q948 531 948 562Q956 595 913 616Q933 654 910 678Q899 707 880 731Q886 772 832 770Q839 817 809 831Q796 864 762 872Q734 885 698 883Q687 931 652 928Q621 933 589 928Q564 966 530 939Q500 960 469 955Q438 953 408 941Q375 945 356 904Q312 933 299 889Q264 889 246 860Q215 850 203 818Q163 815 166 772Q129 762 129 726Q100 707 90 678Q74 651 91 615Q60 591 62 560Q48 531 62 500Q45 469 79 442Q54 407 82 383Q59 343 93 323Q96 290 124 271Q123 234 170 231Q169 191 189 167Q212 145 241 133Q267 117 291 96Q319 83 357 97Q379 68 412 77Q436 37 471 76Q500 38 531 52Q562 51 588 76Q624 57 643 97Q688 67 701 112Q734 115 761 130Q796 136 807 171Q836 187 835 227Q877 234 866 277Q917 284 916 319Q932 347 926 381Q952 406 942 439Q965 468 927 500" stroke="#a8c686" stroke-width="3"/><path d="M500 500L794 491M500 500L769 574M500 500L798 659M500 500L793 720M500 500L723 772M500 500L620 755M500 500L558 927M500 500L484 809M500 500L329 922M500 500L301 780M500 500L281 663M500 500L205 631M500 500L226 587M500 500L72 515M500 500L125 430M500 500L204 335M500 500L295 315M500 500L307 263M500 500L387 169M500 500L441 122M500 500L536 178M500 500L663 130M500 500L701 178M500 500L831 209M500 500L791 362M500 500L784 456" stroke="#a8c686" stroke-width="4"/><circle cx="500" cy="500" r="9" fill="#a8c686"/></svg>