<?xml version="1.0" encoding="utf-8"?>
<!-- Generator: Adobe Illustrator 26.3.1, SVG Export Plug-In . SVG Version: 6.00 Build 0)  -->
<svg version="1.1" id="Layer_1" xmlns="http://www.w3.org/2000/svg" xmlns:xlink="http://www.w3.org/1999/xlink" x="0px" y="0px"
	 viewBox="0 0 160 160" style="enable-background:new 0 0 160 160;" xml:space="preserve">
<style type="text/css">
	.st0{fill:#22375F;}
	.st1{fill:#FFFFFF;}
</style>
<g>
	<circle class="st0" cx="80" cy="80" r="75.1"/>
	<g>
		<g>
			<path class="st1" d="M65.38,55.18c0.67,0,1.21-0.54,1.21-1.21v-3.05h3.02c0.67,0,1.21-0.54,1.21-1.21c0-0.67-0.54-1.21-1.21-1.21
				h-3.32c-1.17,0-2.12,0.95-2.12,2.12v3.35C64.17,54.64,64.71,55.18,65.38,55.18z"/>
			<path class="st1" d="M107.77,50.92h2.96v3.04c0,0.67,0.54,1.21,1.21,1.21s1.21-0.54,1.21-1.21v-3.35c0-1.17-0.95-2.12-2.12-2.12
				h-3.27c-0.67,0-1.21,0.54-1.21,1.21S107.1,50.92,107.77,50.92z"/>
			<path class="st1" d="M107.77,97.48h3.27c1.17,0,2.12-0.95,2.12-2.12v-3.24c0-0.67-0.54-1.21-1.21-1.21s-1.21,0.54-1.21,1.21v2.93
				h-2.96c-0.67,0-1.21,0.54-1.21,1.21C106.55,96.94,107.1,97.48,107.77,97.48L107.77,97.48z"/>
			<path class="st1" d="M66.29,97.48h3.32c0.67,0,1.21-0.54,1.21-1.21s-0.54-1.21-1.21-1.21H66.6v-2.93c0-0.67-0.54-1.21-1.21-1.21
				c-0.67,0-1.21,0.54-1.21,1.21v3.24C64.17,96.53,65.12,97.48,66.29,97.48L66.29,97.48z"/>
			<path class="st1" d="M118.13,104.26H56.61c-0.48,0-0.87-0.39-0.87-0.87V41.87c0-1.82-1.48-3.3-3.3-3.3H41.87
				c-1.82,0-3.3,1.48-3.3,3.3v19.74c0,0.67,0.54,1.21,1.21,1.21S41,62.28,41,61.61V41.87c0-0.48,0.39-0.87,0.87-0.87h10.57
				c0.48,0,0.87,0.39,0.87,0.87v5.9H49.2c-0.67,0-1.21,0.54-1.21,1.21c0,0.67,0.54,1.21,1.21,1.21h4.11v5.31h-2.52
				c-0.67,0-1.21,0.54-1.21,1.21s0.54,1.21,1.21,1.21h2.52v5.31H49.2c-0.67,0-1.21,0.54-1.21,1.21c0,0.67,0.54,1.21,1.21,1.21h4.11
				v5.31h-2.52c-0.67,0-1.21,0.54-1.21,1.21c0,0.67,0.54,1.21,1.21,1.21h2.52v5.31H49.2c-0.67,0-1.21,0.54-1.21,1.21
				s0.54,1.21,1.21,1.21h4.11v5.31h-2.52c-0.67,0-1.21,0.54-1.21,1.21s0.54,1.21,1.21,1.21h2.52v5.31H49.2
				c-0.67,0-1.21,0.54-1.21,1.21s0.54,1.21,1.21,1.21h4.11v6.79c0,0.47,0.1,0.91,0.27,1.31L41,117.28v-50
				c0-0.67-0.54-1.21-1.21-1.21c-0.67,0-1.21,0.54-1.21,1.21v50.84c0,1.82,1.48,3.3,3.3,3.3h76.26c1.82,0,3.3-1.48,3.3-3.3v-10.57
				C121.43,105.74,119.95,104.26,118.13,104.26L118.13,104.26z M119,118.13c0,0.48-0.39,0.87-0.87,0.87H42.72l12.59-12.59
				c0.4,0.17,0.85,0.27,1.31,0.27h6.02v4.12c0,0.67,0.54,1.21,1.21,1.21c0.67,0,1.21-0.54,1.21-1.21v-4.12h5.31v2.53
				c0,0.67,0.54,1.21,1.21,1.21s1.21-0.54,1.21-1.21v-2.53h5.31v4.12c0,0.67,0.54,1.21,1.21,1.21c0.67,0,1.21-0.54,1.21-1.21v-4.12
				h5.31v2.53c0,0.67,0.54,1.21,1.21,1.21s1.21-0.54,1.21-1.21v-2.53h5.31v4.12c0,0.67,0.54,1.21,1.21,1.21
				c0.67,0,1.21-0.54,1.21-1.21v-4.12h5.31v2.53c0,0.67,0.54,1.21,1.21,1.21c0.67,0,1.21-0.54,1.21-1.21v-2.53h5.31v4.12
				c0,0.67,0.54,1.21,1.21,1.21s1.21-0.54,1.21-1.21v-4.12h6.67c0.48,0,0.87,0.39,0.87,0.87V118.13z"/>
			<path class="st1" d="M72.95,84.17l13.89,8.02c1.13,0.65,2.53,0.65,3.65,0l13.89-8.02c1.13-0.65,1.83-1.86,1.83-3.16V64.97
				c0-1.3-0.7-2.51-1.83-3.16l-13.89-8.02c-1.13-0.65-2.53-0.65-3.65,0l-13.89,8.02c-1.13,0.65-1.83,1.86-1.83,3.16v16.04
				C71.12,82.31,71.82,83.52,72.95,84.17L72.95,84.17z M74.16,82.07c-0.38-0.22-0.61-0.62-0.61-1.06V65.66l13.9,8.03v16.05
				L74.16,82.07z M88.05,55.89c0.38-0.22,0.85-0.22,1.22,0l13.29,7.67l-4.58,2.64c-0.58,0.34-0.78,1.08-0.44,1.66
				c0.34,0.58,1.08,0.78,1.66,0.44l4.58-2.64v15.35c0,0.44-0.23,0.84-0.61,1.06l-13.29,7.67V73.69l4.33-2.5
				c0.58-0.34,0.78-1.08,0.44-1.66c-0.33-0.58-1.08-0.78-1.66-0.44l-4.33,2.5l-13.9-8.03L88.05,55.89z"/>
		</g>
	</g>
</g>
</svg>
