<svg xmlns="http://www.w3.org/2000/svg" viewBox="0 0 100 100" width="100" height="100">
  <defs>
    <linearGradient id="pbBg" x1="0" y1="0" x2="0" y2="100" gradientUnits="userSpaceOnUse">
      <stop offset="0" stop-color="#2f7bea"/><stop offset="1" stop-color="#143a78"/>
    </linearGradient>
  </defs>
  <circle cx="50" cy="50" r="48" fill="url(#pbBg)"/>
  <g fill="none" stroke="#dff0ff" stroke-width="2" stroke-linecap="round" opacity=".55">
    <path d="M16 38c10-5 20-5 30 0s20 5 30 0"/>
    <path d="M16 62c10-5 20-5 30 0s20 5 30 0"/>
  </g>
  <g fill="none" stroke="#fff" stroke-width="3.4" stroke-linecap="round">
    <g id="pbArm">
      <path d="M50 50 L50 18"/>
      <path d="M50 25 L43 18"/><path d="M50 25 L57 18"/>
      <path d="M50 35 L44.5 30"/><path d="M50 35 L55.5 30"/>
    </g>
    <use href="#pbArm" transform="rotate(60 50 50)"/>
    <use href="#pbArm" transform="rotate(120 50 50)"/>
    <use href="#pbArm" transform="rotate(180 50 50)"/>
    <use href="#pbArm" transform="rotate(240 50 50)"/>
    <use href="#pbArm" transform="rotate(300 50 50)"/>
  </g>
</svg>
